# xmcd
#
# Track frame offsets: 
#        150
#        13225
#        27935
#        43110
#        54825
#        67650
#        82155
#        97207
#        110122
#        124277
#        139342
#        153214
#        169119
#        179484
#        195842
#        211922
#        226019
#        239134
#        254319
#        273524
#        285594
#        302329
#        318339
#
# Disc length: 4399 seconds
#
# Revision: 0
# Processed by: cddbd v1.5.1PL0 Copyright (c) Steve Scherf et al.
# Submitted via: ExactAudioCopy v0.95a3
#
DISCID=45112d17
DTITLE=CV16: George Strait - The Hits
DYEAR=1900
DGENRE=
TTITLE0=Amarillo By Morning
TTITLE1=Does Fort WOrth Ever Cross Your Mind
TTITLE2=The Cowboy Rides Away
TTITLE3=The Fireman
TTITLE4=The Chair
TTITLE5=You Look So Good in Love
TTITLE6=You're Something Special To Me
TTITLE7=It Ain't Cool to be Craze About You
TTITLE8=Ocean Front Property (in AZ)
TTITLE9=All My Ex's Live in Texas
TTITLE10=Am I Blue
TTITLE11=I Cross My Heart
TTITLE12=Heartland
TTITLE13=Famouse Last Words of a Fool
TTITLE14=Baby Blue
TTITLE15=Love Without End Amen
TTITLE16=Clear Blue Sky
TTITLE17=Carried Away
TTITLE18=I Can Still Make Cheyenne
TTITLE19=Fool Hearted Memory
TTITLE20=Carrying You Love With Me
TTITLE21=I Just Wanna Dance With you
TTITLE22=We Really Shouldn't Be Doing This
EXTD=
EXTT0=
EXTT1=
EXTT2=
EXTT3=
EXTT4=
EXTT5=
EXTT6=
EXTT7=
EXTT8=
EXTT9=
EXTT10=
EXTT11=
EXTT12=
EXTT13=
EXTT14=
EXTT15=
EXTT16=
EXTT17=
EXTT18=
EXTT19=
EXTT20=
EXTT21=
EXTT22=
PLAYORDER=
